<svg xmlns="http://www.w3.org/2000/svg" version="1.1" width="1000" height="625" viewBox="0 0 1000 625"><g transform="matrix(1,0,0,1,0,0)"><svg viewBox="0 0 512 320" data-background-color="#070707" preserveAspectRatio="xMidYMid meet" height="625" width="1000" xmlns="http://www.w3.org/2000/svg" ><g id="tight-bounds" transform="matrix(1,0,0,1,0,0)"><svg viewBox="0 0 512 320" height="320" width="512"><g><svg></svg></g><g><svg viewBox="0 0 512 320" height="320" width="512"><g><path transform="translate(256,160) scale(160,160)" d="M-1 0c0-0.552 0.448-1 1-1 0.552 0 1 0.448 1 1 0 0.552-0.448 1-1 1-0.552 0-1-0.448-1-1z" fill="#df1f50" fill-rule="nonzero" stroke="none" stroke-width="1" stroke-linecap="butt" stroke-linejoin="miter" stroke-miterlimit="10" stroke-dasharray="" stroke-dashoffset="0" font-family="none" font-weight="none" font-size="none" text-anchor="none" style="mix-blend-mode: normal" data-fill-palette-color="tertiary"></path></g><g transform="matrix(1,0,0,1,153.6,81.99597304479423)"><svg viewBox="0 0 204.8 156.00805391041155" height="156.00805391041155" width="204.8"><g><svg viewBox="0 0 204.8 156.00805391041155" height="156.00805391041155" width="204.8"><g><svg viewBox="0 0 204.8 156.00805391041155" height="156.00805391041155" width="204.8"><g transform="matrix(1,0,0,1,0,89.18226954075952)"><svg viewBox="0 0 204.8 66.82578436965203" height="66.82578436965203" width="204.8"><g id="textblocktransform"><svg viewBox="0 0 204.8 66.82578436965203" height="66.82578436965203" width="204.8" id="textblock"><g><svg viewBox="0 0 204.8 66.82578436965203" height="66.82578436965203" width="204.8"><g transform="matrix(1,0,0,1,0,0)"><svg width="204.8" viewBox="0.05 -28.1 87.64 28.6" height="66.82578436965203" data-palette-color="#070707"><path d="M10.25 0.5L10.25 0.5Q6.35 0.5 4.53-0.98 2.7-2.45 2.7-6.05L2.7-6.05 2.7-16.9 0.05-16.9 0.05-23.65 3.2-23.65 3.85-28.1 13.1-28.1 13.1-23.65 17.65-23.65 17.65-16.9 13.05-16.9 13.05-7.65Q13.05-7 13.65-7L13.65-7Q13.7-7 17.6-7.2L17.6-7.2 17.3 0Q12.3 0.5 10.25 0.5ZM19.05-12.08Q19.05-18.65 21.97-21.6 24.9-24.55 31.12-24.55 37.35-24.55 40.2-21.65 43.05-18.75 43.05-12.13 43.05-5.5 40.27-2.5 37.5 0.5 31.17 0.5 24.85 0.5 21.95-2.5 19.05-5.5 19.05-12.08ZM32.42-16.32Q32.15-17.2 31.1-17.2 30.05-17.2 29.77-16.32 29.5-15.45 29.5-12.6L29.5-12.6 29.5-11.4Q29.5-8.2 29.77-7.28 30.05-6.35 31.1-6.35 32.15-6.35 32.42-7.28 32.7-8.2 32.7-11.15L32.7-11.15 32.7-12.55Q32.7-15.45 32.42-16.32ZM55.7-13.4L55.7-13.4 55.7 0 45.4 0 45.4-23.95 54.3-23.95 54.59-22.35 54.8-22.35Q56-23.45 57.55-23.88 59.09-24.3 62.09-24.3L62.09-24.3 61.8-16 58.4-16Q56.9-16 56.3-15.45 55.7-14.9 55.7-13.4ZM77.49-23.95L87.69-23.95 81.94 0 67.89 0 62.09-23.95 72.94-23.95 74.94-11.15 75.29-11.15 77.49-23.95Z" opacity="1" transform="matrix(1,0,0,1,0,0)" fill="#070707" class="wordmark-text-0" data-fill-palette-color="quaternary" id="text-0"></path></svg></g></svg></g></svg></g></svg></g><g transform="matrix(1,0,0,1,39.116800000000005,0)"><svg viewBox="0 0 126.5664 79.43078378240241" height="79.43078378240241" width="126.5664"><g><svg xmlns="http://www.w3.org/2000/svg"  version="1.1" x="0" y="0" viewBox="6.792 21.345000000000002 90.001 56.483000000000004" enable-background="new 0 0 100 100" xml:space="preserve" height="79.43078378240241" width="126.5664" class="icon-icon-0" data-fill-palette-color="quaternary" id="icon-0"><path d="M82.285 71.677H20.183c-2.542 0-4.61-2.068-4.61-4.611v-41.11c0-2.542 2.068-4.611 4.61-4.611h62.102c2.542 0 4.61 2.068 4.61 4.611v41.11C86.896 69.608 84.827 71.677 82.285 71.677zM20.183 25.719c-0.13 0-0.235 0.106-0.235 0.236v41.11c0 0.13 0.105 0.236 0.235 0.236h62.102c0.13 0 0.235-0.106 0.235-0.236v-41.11c0-0.13-0.105-0.236-0.235-0.236H20.183z" fill="#070707" data-fill-palette-color="quaternary"></path><path d="M94.604 77.828H8.98c-1.208 0-2.188-0.979-2.188-2.188s0.979-2.188 2.188-2.188h85.625c1.208 0 2.188 0.979 2.188 2.188S95.812 77.828 94.604 77.828z" fill="#070707" data-fill-palette-color="quaternary"></path><path d="M77.192 45.174c-2.495-3.619-6.809-6.129-12.879-7.512-3.701-0.843-8.056-1.268-13.052-1.268-4.555 0-8.575 0.345-12.051 1.032-6.676 1.318-11.346 3.896-13.939 7.711l-0.204 0.299v0.801l0.204 0.3c4.312 6.344 14.284 13.171 25.99 13.171 11.619 0 21.586-6.783 25.931-13.085l0.208-0.302v-0.845L77.192 45.174zM51.73 53.867c-7.173 0-12.987-5.814-12.987-12.987 0-0.327 0.016-0.651 0.04-0.972 2.323-0.512 4.948-0.851 7.856-1.023-0.243 0.62-0.381 1.292-0.381 1.999 0 3.02 2.453 5.468 5.481 5.468 3.014 0 5.462-2.449 5.462-5.468 0-0.678-0.125-1.326-0.35-1.924 2.908 0.229 5.529 0.646 7.847 1.243 0.012 0.225 0.018 0.45 0.018 0.678C64.716 48.053 58.901 53.867 51.73 53.867z" fill="#070707" data-fill-palette-color="quaternary"></path></svg></g></svg></g><g></g></svg></g></svg></g></svg></g></svg></g><defs></defs></svg><rect width="512" height="320" fill="none" stroke="none" visibility="hidden"></rect></g></svg></g></svg>